<?xml version="1.0" encoding="UTF-8"?>
<svg width="482px" height="478px" viewBox="0 0 482 478" version="1.1" xmlns="http://www.w3.org/2000/svg" xmlns:xlink="http://www.w3.org/1999/xlink">
    <!-- Generator: Sketch 55.2 (78181) - https://sketchapp.com -->
    <title>logo</title>
    <desc>Created with Sketch.</desc>
    <defs>
        <linearGradient x1="84.7617211%" y1="14.9190451%" x2="3.56182396%" y2="93.5822682%" id="linearGradient-1">
            <stop stop-color="#EF473A" offset="0%"></stop>
            <stop stop-color="#CB2D3E" offset="100%"></stop>
        </linearGradient>
    </defs>
    <g id="Page-1" stroke="none" stroke-width="1" fill="none" fill-rule="evenodd">
        <g id="Desktop" transform="translate(-272.000000, -241.000000)">
            <g id="logo" transform="translate(202.000000, 241.000000)">
                <g id="Group">
                    <g id="Group-2" transform="translate(139.000000, 0.000000)">
                        <path d="M81.1110007,300.455016 L46.6482323,334.917785 C42.7429894,338.823028 36.4113396,338.823028 32.5060967,334.917785 L3.51471863,305.926407 C-0.390524292,302.021164 -0.390524292,295.689514 3.51471863,291.784271 L38.7238362,256.575154 C21.4740098,230.450879 11.4325035,199.148099 11.4325035,165.5 C11.4325035,74.0968739 85.5293774,-2.84217094e-14 176.932504,-2.84217094e-14 C268.33563,-2.84217094e-14 342.432504,74.0968739 342.432504,165.5 C342.432504,256.903126 268.33563,331 176.932504,331 C141.22128,331 108.151799,319.689358 81.1110007,300.455016 Z" id="Combined-Shape" fill="url(#linearGradient-1)"></path>
                        <path d="M119.532713,265.705859 L119.532713,255.301232 C119.532713,232.04655 138.486288,213.124968 161.783742,213.124968 L189.784491,213.124968 C213.081945,213.124968 232.035521,232.04655 232.0271,255.301232 L232.0271,271.93483 C216.702964,279.036587 199.628051,283 181.627434,283 C158.899927,283 137.648131,276.681731 119.532713,265.705859 Z M111.653641,260.4979 C91.0904209,245.713667 75.3949095,224.584855 67.4325035,199.976862 C74.7807349,187.508384 88.3667701,179.121617 103.878463,179.121617 L131.876404,179.121617 C132.926573,179.121617 133.945854,179.202898 134.976367,179.278573 C135.321743,190.30752 140.050309,200.246185 147.519422,207.396082 C126.80527,213.548189 111.659257,232.710809 111.653641,255.351682 L111.653641,260.4979 Z M286.627165,221.140592 C276.456646,239.468979 261.626488,254.854447 243.736553,265.697134 C242.485326,265.773869 241.207478,265.836838 239.90336,265.884537 L239.90336,255.351682 C239.90336,232.710809 224.751732,213.542583 204.043196,207.396082 C211.548811,200.209749 216.294225,190.217831 216.594674,179.121617 L244.379212,179.121617 C267.623184,179.121617 286.544951,197.958174 286.627165,221.140592 Z M197.405232,143.439399 C197.68041,125.48758 212.323802,111.005606 230.37603,111 C248.602349,111 263.374907,125.745436 263.374907,143.938294 C263.374907,162.12835 248.602349,176.873786 230.37603,176.873786 C225.383518,176.873786 220.674607,175.735856 216.431814,173.757092 C215.10366,160.967998 207.808639,149.950262 197.405232,143.439399 Z M175.786925,210.87994 C157.563413,210.87994 142.782432,196.134504 142.782432,177.944449 C142.782432,159.754393 157.563413,145.006154 175.786925,145.006154 C194.010436,145.006154 208.785801,159.75159 208.785801,177.941646 C208.785801,196.131701 194.013244,210.87994 175.786925,210.87994 Z M117.884454,176.879391 C99.6553259,176.879391 84.8855767,162.131152 84.8855767,143.946703 C84.8855767,125.753845 99.6553259,111.008408 117.884454,111.008408 C136.102349,111.008408 150.877714,125.753845 150.877714,143.946703 C150.877714,144.56892 150.818748,145.179927 150.785053,145.796539 C142.706618,152.063559 137.051432,161.265093 135.43406,171.795145 C130.346078,174.998725 124.339901,176.879391 117.884454,176.879391 Z" id="Combined-Shape" fill="#FFFFFF"></path>
                    </g>
                    <text id="crewlookouts" font-family="AvenirNext-Regular, Avenir Next" font-size="80" font-weight="normal" fill="#E5403B">
                        <tspan x="66.4" y="477">crewlookouts</tspan>
                    </text>
                </g>
            </g>
        </g>
    </g>
</svg>